#!OML:ASF H:\ManfredETheater\Project 1\Capture day 1\Session 1\subject.ASF
:FULLY-SPECIFIED
:DEGREES
108
root 0.157316 11.357 -2.69266 -21.5157 5.91255 -216.609
lowerback 32.8706 -6.41467 0.567149
upperback 10.4615 -8.79763 -7.72387
thorax -6.61464 -3.89315 -5.31903
lowerneck -8.26617 -4.48381 -8.58544
upperneck 2.34243 -4.91286 -10.0878
head 2.13104 -2.9516 -2.01472
rclavicle -6.91771e-014 -7.63333e-014
rhumerus -4.79858 18.0143 -35.7022
rradius 118.788
rwrist 31.2858
rhand -31.0455 -27.5337
rfingers 7.12502
rthumb -4.32705 -57.4695
lclavicle -6.91771e-014 -7.63333e-014
lhumerus 83.6192 -26.9853 46.1883
lradius 79.6984
lwrist -26.8267
lhand -61.0178 -60.107
lfingers 7.12502
lthumb -33.1203 -33.1322
rfemur -89.6196 -22.6072 43.3559
rtibia 116.183
rfoot 19.0928 5.34441
rtoes -25.8533
lfemur -43.1865 28.6179 14.6857
ltibia 97.8173
lfoot 15.4641 -13.9006
ltoes 10.6953
109
root 0.1244 10.9478 -3.14373 -20.2582 7.86755 -217.056
lowerback 33.205 -6.33421 0.338285
upperback 10.8917 -8.67454 -7.58223
thorax -6.19837 -3.79143 -5.10372
lowerneck -8.1183 -4.43906 -8.72264
upperneck 3.42204 -4.71691 -10.0509
head 2.47867 -2.90673 -1.9993
rclavicle 7.23576e-014 9.54166e-015
rhumerus -6.31043 17.2891 -39.4395
rradius 117.839
rwrist 34.2077
rhand -31.7465 -28.4162
rfingers 7.12502
rthumb -5.00394 -58.3371
lclavicle 7.23576e-014 9.54166e-015
lhumerus 83.3581 -28.0052 45.6498
lradius 80.1216
lwrist -26.3392
lhand -60.7895 -60.5414
lfingers 7.12502
lthumb -32.9031 -33.5207
rfemur -90.1298 -23.3089 44.0675
rtibia 117.159
rfoot 19.1033 5.45624
rtoes -25.3787
lfemur -44.184 29.7636 15.3088
ltibia 100.113
lfoot 15.3982 -14.2047
ltoes 12.7222
110
root 0.0870885 10.5281 -3.59028 -18.9872 9.89153 -217.434
lowerback 33.5565 -6.23123 0.104211
upperback 11.3088 -8.51035 -7.3537
thorax -5.78242 -3.66958 -4.80963
lowerneck -7.94253 -4.4011 -8.90905
upperneck 4.49364 -4.53086 -10.0304
head 2.82307 -2.86833 -1.98128
rclavicle 1.59028e-015 5.40694e-014
rhumerus -7.43613 16.1746 -42.886
rradius 116.519
rwrist 37.6552
rhand -32.6532 -29.0808
rfingers 7.12502
rthumb -5.87938 -58.9793
lclavicle 1.59028e-015 5.40694e-014
lhumerus 82.8924 -29.0671 45.3427
lradius 80.6051
lwrist -25.8455
lhand -60.389 -59.8132
lfingers 7.12502
lthumb -32.5221 -32.7134
rfemur -90.7284 -24.0645 44.8069
rtibia 118.086
rfoot 18.9914 5.53179
rtoes -24.8571
lfemur -45.1477 30.9529 15.8904
ltibia 102.393
lfoot 15.3701 -14.4039
ltoes 14.6841
111
root 0.0446112 10.099 -4.03213 -17.6817 11.9544 -217.735
lowerback 33.8953 -6.10577 -0.0633495
upperback 11.7432 -8.28224 -7.05911
thorax -5.33603 -3.51465 -4.50734
lowerneck -7.86996 -4.38541 -9.11745
upperneck 5.61479 -4.35335 -10.0204
head 3.20951 -2.84253 -1.96987
rclavicle -1.22451e-013 -7.95139e-014
rhumerus -8.07646 14.5715 -45.9856
rradius 115.482
rwrist 39.0253
rhand -32.5415 -27.7387
rfingers 7.12502
rthumb -5.77159 -57.6401
lclavicle -1.22451e-013 -7.95139e-014
lhumerus 82.2557 -30.1667 45.2456
lradius 81.1844
lwrist -25.3708
lhand -59.8518 -57.9985
lfingers 7.12502
lthumb -32.0108 -30.7947
rfemur -91.4123 -24.8419 45.5761
rtibia 118.966
rfoot 18.7768 5.56234
rtoes -24.3233
lfemur -46.0564 32.2143 16.4411
ltibia 104.653
lfoot 15.4067 -14.6316
ltoes 16.3478
